<svg width="168" height="32" viewBox="0 0 168 32" fill="none" xmlns="http://www.w3.org/2000/svg">
<path d="M10.403 31.567C8.905 31.567 7.498 31.287 6.182 30.727C4.866 30.153 3.725 29.341 2.759 28.291C1.807 27.241 1.114 26.002 0.68 24.574L4.922 23.398C5.328 24.7 6.035 25.701 7.043 26.401C8.051 27.087 9.171 27.423 10.403 27.409C11.509 27.395 12.482 27.136 13.322 26.632C14.162 26.128 14.82 25.449 15.296 24.595C15.772 23.727 16.01 22.733 16.01 21.613C16.01 19.933 15.485 18.547 14.435 17.455C13.399 16.363 12.041 15.817 10.361 15.817C9.885 15.817 9.395 15.887 8.891 16.027C8.401 16.167 7.939 16.349 7.505 16.573L5.447 13.108L16.115 3.679L16.577 4.939H1.877V0.759999H20.063V4.939L11.201 13.465L11.159 12.037C13.063 12.037 14.715 12.464 16.115 13.318C17.515 14.158 18.593 15.306 19.349 16.762C20.119 18.204 20.504 19.821 20.504 21.613C20.504 23.545 20.049 25.26 19.139 26.758C18.243 28.256 17.032 29.432 15.506 30.286C13.994 31.14 12.293 31.567 10.403 31.567Z" fill="#F13024"/>
<path d="M38.8692 31.63C36.6152 31.63 34.7252 31.126 33.1992 30.118C31.6732 29.11 30.5182 27.71 29.7342 25.918C28.9502 24.112 28.5372 22.026 28.4952 19.66C28.5372 17.238 28.9502 15.131 29.7342 13.339C30.5322 11.547 31.6942 10.161 33.2202 9.181C34.7462 8.187 36.6292 7.69 38.8692 7.69C40.9692 7.69 42.8382 8.194 44.4762 9.202C46.1282 10.196 47.2972 11.568 47.9832 13.318L46.3032 14.032C45.6732 12.576 44.7002 11.449 43.3842 10.651C42.0822 9.853 40.5772 9.454 38.8692 9.454C36.9652 9.454 35.3902 9.888 34.1442 10.756C32.8982 11.61 31.9672 12.807 31.3512 14.347C30.7352 15.873 30.4132 17.644 30.3852 19.66C30.4272 22.74 31.1552 25.211 32.5692 27.073C33.9832 28.935 36.0832 29.866 38.8692 29.866C40.5352 29.866 42.0122 29.481 43.3002 28.711C44.5882 27.941 45.5752 26.814 46.2612 25.33L47.9832 26.086C47.0452 27.906 45.8062 29.285 44.2662 30.223C42.7262 31.161 40.9272 31.63 38.8692 31.63ZM73.0178 31V18.988C73.0178 17.364 72.8498 15.964 72.5138 14.788C72.1918 13.598 71.7088 12.618 71.0648 11.848C70.4208 11.064 69.6368 10.483 68.7128 10.105C67.8028 9.727 66.7598 9.538 65.5838 9.538C64.1978 9.538 63.0148 9.783 62.0348 10.273C61.0688 10.749 60.2848 11.407 59.6828 12.247C59.0808 13.087 58.6398 14.053 58.3598 15.145C58.0798 16.237 57.9398 17.392 57.9398 18.61L56.3018 18.652C56.3018 16.062 56.7288 13.976 57.5828 12.394C58.4368 10.798 59.5638 9.636 60.9638 8.908C62.3778 8.18 63.9178 7.816 65.5838 7.816C66.7318 7.816 67.7818 7.977 68.7338 8.299C69.6998 8.621 70.5538 9.09 71.2958 9.706C72.0518 10.308 72.6888 11.05 73.2068 11.932C73.7248 12.814 74.1168 13.822 74.3828 14.956C74.6488 16.076 74.7818 17.308 74.7818 18.652V31H73.0178ZM56.1758 31V0.759999H57.8138V18.61H57.9398V31H56.1758ZM90.626 31.63C88.8619 31.63 87.3989 31.322 86.2369 30.706C85.0749 30.09 84.2069 29.278 83.6329 28.27C83.0589 27.262 82.7719 26.17 82.7719 24.994C82.7719 23.664 83.0589 22.565 83.6329 21.697C84.2209 20.815 84.9839 20.122 85.9219 19.618C86.8599 19.114 87.8679 18.75 88.9459 18.526C90.2619 18.26 91.669 18.029 93.167 17.833C94.679 17.623 96.072 17.448 97.346 17.308C98.62 17.168 99.572 17.056 100.202 16.972L99.572 17.392C99.642 14.718 99.152 12.73 98.102 11.428C97.066 10.112 95.232 9.454 92.6 9.454C90.696 9.454 89.163 9.881 88.001 10.735C86.8529 11.575 86.0479 12.87 85.5859 14.62L83.6539 14.116C84.1579 12.016 85.1869 10.42 86.7409 9.328C88.3089 8.236 90.2899 7.69 92.684 7.69C94.784 7.69 96.534 8.117 97.934 8.971C99.334 9.825 100.286 10.98 100.79 12.436C100.986 12.996 101.126 13.675 101.21 14.473C101.294 15.271 101.336 16.048 101.336 16.804V31H99.698V24.784L100.538 24.826C99.936 26.982 98.739 28.655 96.947 29.845C95.155 31.035 93.048 31.63 90.626 31.63ZM90.5419 29.866C92.18 29.866 93.622 29.572 94.8679 28.984C96.128 28.396 97.143 27.549 97.913 26.443C98.697 25.323 99.194 23.986 99.404 22.432C99.516 21.648 99.572 20.808 99.572 19.912C99.572 19.016 99.572 18.372 99.572 17.98L100.496 18.694C99.754 18.764 98.725 18.862 97.4089 18.988C96.1069 19.1 94.7279 19.254 93.272 19.45C91.8159 19.632 90.4999 19.87 89.3239 20.164C88.6379 20.332 87.9309 20.598 87.2029 20.962C86.4749 21.326 85.8589 21.837 85.3549 22.495C84.8649 23.153 84.6199 24 84.6199 25.036C84.6199 25.764 84.8019 26.499 85.1659 27.241C85.5299 27.983 86.1389 28.606 86.9929 29.11C87.8609 29.614 89.0439 29.866 90.5419 29.866ZM110.996 3.448V0.759999H112.76V3.448H110.996ZM110.996 31V8.32H112.76V31H110.996ZM139.688 31V18.988C139.688 17.364 139.52 15.964 139.184 14.788C138.862 13.598 138.379 12.618 137.735 11.848C137.091 11.064 136.307 10.483 135.383 10.105C134.473 9.727 133.43 9.538 132.254 9.538C130.868 9.538 129.685 9.783 128.705 10.273C127.739 10.749 126.955 11.407 126.353 12.247C125.751 13.087 125.31 14.053 125.03 15.145C124.75 16.237 124.61 17.392 124.61 18.61L122.972 18.652C122.972 16.062 123.399 13.976 124.253 12.394C125.107 10.798 126.234 9.636 127.634 8.908C129.048 8.18 130.588 7.816 132.254 7.816C133.402 7.816 134.452 7.977 135.404 8.299C136.37 8.621 137.224 9.09 137.966 9.706C138.722 10.308 139.359 11.05 139.877 11.932C140.395 12.814 140.787 13.822 141.053 14.956C141.319 16.076 141.452 17.308 141.452 18.652V31H139.688ZM122.846 31V8.32H124.484V12.94H124.61V31H122.846ZM158.976 31.588C156.414 31.588 154.286 31.056 152.592 29.992C150.898 28.914 149.848 27.43 149.442 25.54L151.248 25.204C151.626 26.604 152.508 27.724 153.894 28.564C155.294 29.404 157.002 29.824 159.018 29.824C161.076 29.824 162.707 29.383 163.911 28.501C165.129 27.619 165.738 26.422 165.738 24.91C165.738 24.084 165.556 23.412 165.192 22.894C164.828 22.362 164.114 21.879 163.05 21.445C162 21.011 160.446 20.514 158.388 19.954C156.232 19.366 154.552 18.799 153.348 18.253C152.158 17.693 151.318 17.07 150.828 16.384C150.352 15.684 150.114 14.83 150.114 13.822C150.114 12.618 150.471 11.554 151.185 10.63C151.899 9.706 152.886 8.985 154.146 8.467C155.406 7.949 156.862 7.69 158.514 7.69C160.18 7.69 161.678 7.97 163.008 8.53C164.352 9.076 165.43 9.846 166.242 10.84C167.068 11.82 167.544 12.954 167.67 14.242L165.864 14.578C165.598 12.996 164.786 11.75 163.428 10.84C162.084 9.916 160.404 9.454 158.388 9.454C156.498 9.426 154.951 9.811 153.747 10.609C152.557 11.407 151.962 12.45 151.962 13.738C151.962 14.452 152.165 15.068 152.571 15.586C152.977 16.09 153.684 16.552 154.692 16.972C155.7 17.392 157.1 17.826 158.892 18.274C161.16 18.848 162.924 19.429 164.184 20.017C165.458 20.605 166.347 21.291 166.851 22.075C167.369 22.859 167.628 23.832 167.628 24.994C167.628 27.052 166.858 28.669 165.318 29.845C163.778 31.007 161.664 31.588 158.976 31.588Z" fill="white"/>
</svg>
