<svg width="512" height="512" viewBox="0 0 512 512" fill="none" xmlns="http://www.w3.org/2000/svg">
<path d="M251.457 510C215.919 510 181.101 505.001 147.004 495.004C113.386 484.531 85.0519 470.249 62 452.159L102.341 380.037C120.59 394.794 142.681 406.696 168.615 415.741C194.548 424.786 221.682 429.308 250.017 429.308C283.634 429.308 309.807 422.644 328.537 409.314C347.267 395.508 356.631 376.942 356.631 353.615C356.631 330.765 347.987 312.675 330.698 299.345C313.409 286.015 285.555 279.351 247.135 279.351H201.031V215.797L345.106 45.8451L357.352 80.8352H86.4926V3H430.109V65.1254L286.035 235.077L237.05 206.514H265.144C327.096 206.514 373.44 220.32 404.176 247.931C435.392 275.066 451 310.056 451 352.901C451 380.989 443.796 406.934 429.389 430.737C414.982 454.539 392.89 473.82 363.115 488.577C333.82 502.859 296.601 510 251.457 510Z" fill="#8855EE"/>
</svg>
