<?xml version="1.0" standalone="no"?>
<!DOCTYPE svg PUBLIC "-//W3C//DTD SVG 20010904//EN"
 "http://www.w3.org/TR/2001/REC-SVG-20010904/DTD/svg10.dtd">
<svg version="1.0" xmlns="http://www.w3.org/2000/svg"
 width="700.000000pt" height="700.000000pt" viewBox="0 0 700.000000 700.000000"
 preserveAspectRatio="xMidYMid meet">
<metadata>
Created by potrace 1.14, written by Peter Selinger 2001-2017
</metadata>
<g transform="translate(0.000000,700.000000) scale(0.100000,-0.100000)"
fill="#000000" stroke="none">
<path d="M1184 6426 l1 -531 1555 -1 c855 -1 1559 -2 1563 -3 5 0 -18 -31 -50
-68 -32 -37 -69 -81 -83 -97 -14 -17 -41 -48 -61 -70 -19 -23 -93 -111 -165
-196 -71 -85 -134 -160 -140 -166 -5 -6 -30 -35 -55 -64 -24 -29 -49 -58 -54
-64 -6 -6 -46 -54 -90 -106 -44 -52 -82 -97 -85 -100 -3 -3 -27 -32 -55 -65
-27 -33 -52 -62 -55 -65 -3 -3 -27 -32 -55 -65 -27 -33 -52 -62 -55 -65 -3 -3
-64 -75 -135 -160 -72 -85 -133 -157 -136 -160 -3 -3 -30 -34 -60 -70 -29 -36
-56 -67 -59 -70 -3 -3 -40 -46 -83 -97 l-77 -91 0 -436 0 -436 398 -1 c218 0
415 -2 437 -4 124 -8 213 -16 235 -19 14 -3 59 -10 100 -16 493 -78 824 -332
920 -705 77 -300 24 -608 -144 -832 -157 -209 -440 -366 -771 -428 -64 -13
-170 -27 -235 -33 -149 -14 -590 -6 -686 12 -20 4 -122 19 -139 21 -150 15
-545 126 -730 206 -276 118 -411 192 -613 334 -68 47 -125 85 -126 83 -3 -3
-375 -669 -416 -743 -9 -16 -42 -76 -74 -133 -66 -118 -69 -101 34 -172 29
-19 64 -44 78 -56 26 -19 150 -96 237 -144 69 -39 227 -117 305 -149 41 -18
84 -36 95 -41 38 -18 131 -52 220 -82 50 -16 99 -33 110 -38 11 -5 31 -11 45
-14 14 -4 84 -22 155 -41 123 -32 387 -86 485 -100 25 -3 56 -8 70 -10 73 -11
276 -31 420 -41 64 -4 514 -4 580 1 98 6 224 17 239 20 9 1 41 6 71 9 60 7 72
9 200 32 687 121 1256 467 1588 964 101 152 199 369 252 557 26 92 36 139 54
248 26 151 26 440 1 620 -35 254 -147 550 -284 750 -184 268 -469 517 -753
656 -211 103 -539 202 -771 233 -67 9 -117 19 -117 23 0 4 318 382 330 393 3
3 53 61 110 130 57 69 116 139 131 155 15 17 94 109 176 206 313 372 527 624
533 629 5 4 201 237 295 349 16 20 42 50 57 66 l28 30 0 427 0 426 -2349 0
-2349 0 2 -532z"/>
</g>
</svg>
